<?xml version="1.0" encoding="iso-8859-1"?>
<!-- Generator: Adobe Illustrator 18.0.0, SVG Export Plug-In . SVG Version: 6.00 Build 0)  -->
<!DOCTYPE svg PUBLIC "-//W3C//DTD SVG 1.1//EN" "http://www.w3.org/Graphics/SVG/1.1/DTD/svg11.dtd">
<svg version="1.1" id="Capa_1" xmlns="http://www.w3.org/2000/svg" xmlns:xlink="http://www.w3.org/1999/xlink" x="0px" y="0px"
	 viewBox="0 0 145.566 145.566" style="enable-background:new 0 0 145.566 145.566;" xml:space="preserve">
<g>
	<path style="fill-rule:evenodd;clip-rule:evenodd;fill:#FF386A;" d="M61.045,92.281c-25.952,11.377-33.736,17.443-36.813,20.166
		c-4.742,4.196-7.365,19.838-10.163,33.12h58.716h58.714c-2.797-13.281-5.42-28.924-10.162-33.12
		c-3.077-2.723-10.577-8.633-36.528-20.01L61.045,92.281z"/>
	<path style="fill-rule:evenodd;clip-rule:evenodd;fill:#FFDECC;" d="M85.384,69.602v28.767c-3.524,4.428-8.136,7.126-12.6,7.336
		c-4.759,0.224-9.362-2.336-12.602-7.336V69.602C60.182,54.069,85.384,54.069,85.384,69.602z"/>
	<path style="fill-rule:evenodd;clip-rule:evenodd;fill:#F7C5AA;" d="M85.384,69.602v19.26c-4.768,3.476-9.364,5.423-12.6,5.423
		c-3.236,0-7.834-1.947-12.602-5.422v-19.26C60.182,54.069,85.384,54.069,85.384,69.602z"/>
	<path style="fill-rule:evenodd;clip-rule:evenodd;fill:#FFDECC;" d="M72.784,17.955c-42.292,0-27.083,51.102-24.32,55.169
		c3.045,4.486,17.486,16.376,24.32,16.376c6.832,0,21.273-11.89,24.319-16.376C99.866,69.057,115.075,17.955,72.784,17.955z"/>
	<path style="fill-rule:evenodd;clip-rule:evenodd;fill:#F7C5AA;" d="M84.048,73.951c-9.916,0.456-19.721-3.195-25.716-8.609
		C58.706,73.548,77.596,79.937,84.048,73.951z"/>
	<path style="fill-rule:evenodd;clip-rule:evenodd;fill:#F7C5AA;" d="M60.938,64.63c-2.067,0.803-3.74,2.436-4.476,4.084
		C55.979,66.47,59.272,63.422,60.938,64.63z"/>
	<path style="fill-rule:evenodd;clip-rule:evenodd;fill:#CC7C54;" d="M63.041,28.005c-9.471-0.102-16.198,3.43-19.145,12.11
		c0.249-6.503,0.186-16.729,0.914-23.782c0.462-4.466,3.905-10.595,13.466-12.419c1.963-0.374-4.972,4.618-2.88,3.834
		c4.655-1.744,9.542-4.476,13.719-5.062c2.865-0.402-4.247,5.228-1.896,4.178c6.124-2.736,10.77-5.588,15.135-5.706
		c2.626-0.07-8.214,6.108-6.375,5.489C85.637,3.395,88.64,0.74,93.322,0.006c1.746-0.273-11.967,8.697-5.724,7.009
		c6.894-1.864,11.327-6.352,14.236-5.984c2.891,0.366-2.818,4.098-1.753,9.155c1.207,5.726,0.921,21.369,1.248,29.93
		c-2.946-8.68-10.532-12.538-19.144-12.11C75.131,28.356,69.995,28.08,63.041,28.005z"/>
	
		<ellipse transform="matrix(-0.3127 -0.9498 0.9498 -0.3127 3.0578 114.4942)" style="fill-rule:evenodd;clip-rule:evenodd;fill:#FFDECC;" cx="42.951" cy="56.141" rx="7.317" ry="4.231"/>
	
		<ellipse transform="matrix(0.3128 -0.9498 0.9498 0.3128 17.638 136.6604)" style="fill-rule:evenodd;clip-rule:evenodd;fill:#FFDECC;" cx="103.261" cy="56.141" rx="7.317" ry="4.231"/>
	<g>
		<polygon style="fill-rule:evenodd;clip-rule:evenodd;fill:#FFA8BE;" points="60.167,92.667 49.992,97.069 62.952,115.032 
			72.784,105.705 		"/>
		<polygon style="fill-rule:evenodd;clip-rule:evenodd;fill:#FFA8BE;" points="85.384,92.685 95.575,97.069 82.615,115.032 
			72.784,105.705 		"/>
	</g>
	<path style="fill-rule:evenodd;clip-rule:evenodd;fill:#FFA8BE;" d="M21.253,117.023c-2.986,6.728-5.034,18.332-7.184,28.543
		h23.836C37.371,128.907,37.341,120.047,21.253,117.023z"/>
	<path style="fill-rule:evenodd;clip-rule:evenodd;fill:#FFA8BE;" d="M124.313,117.023c2.986,6.728,5.034,18.332,7.185,28.543
		h-23.836C108.195,128.907,108.225,120.047,124.313,117.023z"/>
	<path style="fill-rule:evenodd;clip-rule:evenodd;fill:#FFDECC;" d="M129.278,134.814c0.348,1.698,1.872,9.1,2.22,10.752h-23.836
		c0.057-1.766,0.108-3.443,0.173-5.036L129.278,134.814z"/>
	<path style="fill-rule:evenodd;clip-rule:evenodd;fill:#FFDECC;" d="M16.601,133.345c-0.347,1.697-2.185,10.57-2.533,12.221h23.836
		c-0.057-1.766-0.107-3.443-0.172-5.036L16.601,133.345z"/>
</g>
<g>
</g>
<g>
</g>
<g>
</g>
<g>
</g>
<g>
</g>
<g>
</g>
<g>
</g>
<g>
</g>
<g>
</g>
<g>
</g>
<g>
</g>
<g>
</g>
<g>
</g>
<g>
</g>
<g>
</g>
</svg>
